<?xml version="1.0" encoding="UTF-8"?><svg xmlns="http://www.w3.org/2000/svg" xmlns:xlink="http://www.w3.org/1999/xlink" height="171.3" preserveAspectRatio="xMidYMid meet" version="1.0" viewBox="0.0 0.0 240.0 171.3" width="240.0" zoomAndPan="magnify"><g id="change1_1"><path d="M0,0V171.34H240V0ZM39.26,103.19l-5.66,5.65L10.43,85.67,33.6,62.5l5.66,5.65L21.74,85.67ZM185,139.34H55V32H185Zm21.4-30.5-5.66-5.65,17.52-17.52L200.74,68.15l5.66-5.65,23.17,23.17Z" fill="inherit"/><path d="M177 73.48L177 131.34 63 131.34 63 103.17 87.79 81.84 111.69 100.42 149.84 70.28 166.48 81.61 177 73.48z" fill="inherit"/><path d="M177 40L177 63.36 166.18 71.73 149.49 60.37 111.65 90.25 87.54 71.5 63 92.62 63 40 177 40z" fill="inherit"/></g></svg>